<?xml version="1.0" encoding="utf-8"?>
<!-- Generator: Adobe Illustrator 23.0.1, SVG Export Plug-In . SVG Version: 6.00 Build 0)  -->
<svg version="1.1" id="Layer_1" xmlns="http://www.w3.org/2000/svg" xmlns:xlink="http://www.w3.org/1999/xlink" x="0px" y="0px"
	 viewBox="0 0 1000 1000" style="enable-background:new 0 0 1000 1000;" xml:space="preserve">
<style type="text/css">
	.st0{fill:#273C7E;}
	.st1{fill:#4D9ED7;}
</style>
<g>
	<path class="st0" d="M366.4,831.2H198.6V630.5c0-42.8,16.5-65.8,53.3-70.4h115.2c68.8-5.7,129.2,45.5,134.9,114.3
		c0.6,7,0.6,14,0,21c0,85.5-51.7,136.5-134.9,136.5L366.4,831.2z M198.3,288.6V236c0-46.1,19.7-68.4,62.5-71.1H347
		c73.7,0,118.5,44.1,118.5,118.5c0,55.9-30.3,121.7-115.2,121.7H198.9L198.3,288.6z M581.3,489.3L551,472.2l26.3-23
		c30.9-26.3,82.3-86.2,82.3-189.2C659.6,102,537.2,0,348,0H107.8C51.4,2,6.6,48,6.1,104.3v895h346.1
		c210.6,0,346.1-114.5,346.1-292.2c0-95.4-43.8-177.7-117.8-218.8"/>
	<path class="st1" d="M753,879.2c0-66.8,53.6-120.8,120.1-120.8s120.8,54,120.8,120.8s-54,120.8-120.8,120.8S753,946,753,879.2"/>
</g>
</svg>
